# xmcd CD database file
#
# Track frame offsets:
#	150
#	15490
#	35611
#	54602
#	72939
#	89694
#	107689
#	123791
#	150847
#	169948
#	194835
#	220618
#	238886
#
# Disc length: 3472 seconds
#
# Revision: 0
# Processed by: cddbd v1.5.2PL0 Copyright (c) Steve Scherf et al.
# Submitted via: CDex 1.50beta10
#
DISCID=b00d8e0d
DTITLE=Matt Dusk - Two Shots
DYEAR=2003
DGENRE=Jazz
TTITLE0=Please please me
TTITLE1=Two shots
TTITLE2=Windows
TTITLE3=Cold as ice
TTITLE4=The theme from Loaded Gun
TTITLE5=Don't go looking
TTITLE6=Miracle
TTITLE7=Wish you well
TTITLE8=Precious years
TTITLE9=Lonely road
TTITLE10=Always
TTITLE11=Every mother's son
TTITLE12=Five
EXTD=YEAR: 2003
EXTT0=
EXTT1=
EXTT2=
EXTT3=
EXTT4=
EXTT5=
EXTT6=
EXTT7=
EXTT8=
EXTT9=
EXTT10=
EXTT11=
EXTT12=
PLAYORDER=
